<svg width="122" height="126" viewBox="0 0 122 126" fill="none" xmlns="http://www.w3.org/2000/svg">
<g id="Frame">
<path id="Vector" d="M82.0504 100.002C81.5469 99.1122 81.0241 98.2622 80.4819 97.4522C78.1774 94.0422 75.5244 91.4322 72.5034 89.6322L66.723 86.1822V67.9022L72.5034 71.3522C76.2312 73.5722 79.4168 73.9122 82.0504 72.3522C84.6841 70.8022 86.0009 67.8222 86.0009 63.4022C86.0009 59.2522 84.839 54.9922 82.5152 50.6022C82.3699 50.3122 82.215 50.0322 82.0504 49.7422C80.8014 47.5122 79.4265 45.5622 77.9257 43.8922C76.2699 42.0422 74.4593 40.5322 72.5034 39.3622C70.5476 38.1922 68.737 37.5522 67.0813 37.4322C65.8323 37.3222 64.6606 37.5222 63.5858 38.0322L62.9662 38.3522C60.3326 39.9122 59.0157 42.8922 59.0157 47.3122V54.1622L55.2395 51.9122L43.5914 44.9722V38.1122C43.5914 34.9022 42.8942 31.6222 41.5096 28.2722C40.9868 27.0022 40.3671 25.7322 39.6409 24.4422C39.1277 23.5422 38.6049 22.6822 38.053 21.8722C35.7582 18.4622 33.1052 15.8622 30.0939 14.0722C26.6566 12.0222 23.6744 11.5722 21.1666 12.7422L20.5469 13.0622C17.9133 14.6222 16.5965 17.6022 16.5965 22.0222C16.5965 26.4422 17.9133 30.9922 20.5469 35.6822C23.1806 40.3822 26.3661 43.8422 30.0939 46.0622L35.8744 49.5122V67.7822L30.0939 64.3422C26.705 62.3122 23.7615 61.8522 21.2731 62.9622L20.5469 63.3322C17.9133 64.8822 16.5965 67.8722 16.5965 72.2822C16.5965 76.6922 17.9133 81.2522 20.5469 85.9522C23.1806 90.6422 26.3661 94.1022 30.0939 96.3222C33.8217 98.5522 36.9976 98.8822 39.6409 97.3322C42.2746 95.7822 43.5914 92.7922 43.5914 88.3822V81.5222L44.0271 81.7822L54.9006 88.2722L55.9657 88.9022L59.0157 90.7222V97.5722C59.0157 101.992 60.3326 106.552 62.9662 111.242C65.5999 115.932 68.7757 119.392 72.5034 121.612C76.2312 123.842 79.4168 124.172 82.0504 122.622C84.6841 121.072 86.0009 118.082 86.0009 113.672C86.0009 110.462 85.3038 107.172 83.9095 103.812C83.3866 102.552 82.7669 101.282 82.0504 100.002ZM66.723 51.9122C66.723 50.0022 67.2846 48.7222 68.4077 48.0622C68.6304 47.9322 68.8628 47.8322 69.0952 47.7622C70.0731 47.4822 71.2157 47.7322 72.5034 48.5022C73.8009 49.2722 74.9338 50.3822 75.9117 51.8322C76.1538 52.1822 76.3861 52.5522 76.6088 52.9422C76.7153 53.1322 76.8122 53.3122 76.909 53.5022C77.8288 55.3122 78.2936 57.0822 78.2936 58.8022C78.2936 60.7122 77.732 61.9922 76.6088 62.6522C75.476 63.3122 74.1107 63.1722 72.5034 62.2122L66.723 58.7622V51.9122ZM35.8744 83.7822C35.8744 85.6822 35.3128 86.9622 34.1896 87.6322C33.0665 88.2922 31.7012 88.1422 30.0939 87.1822C28.4866 86.2322 27.1214 84.7422 25.9982 82.7422C24.875 80.7422 24.3134 78.7822 24.3134 76.8822C24.3134 74.9822 24.875 73.6922 25.9982 73.0322C27.1214 72.3722 28.4866 72.5222 30.0939 73.4722L35.8744 76.9222V83.7822ZM35.8744 40.3722L30.0939 36.9222C28.4866 35.9622 27.1214 34.4822 25.9982 32.4822C24.875 30.4722 24.3134 28.5222 24.3134 26.6222C24.3134 24.7222 24.875 23.4322 25.9982 22.7722C27.1214 22.1022 28.4866 22.2522 30.0939 23.2122C31.7012 24.1722 33.0665 25.6522 34.1896 27.6522C35.3128 29.6622 35.8744 31.6122 35.8744 33.5122V40.3722ZM59.0157 81.5822L52.8769 77.9222L46.0604 73.8522L43.5914 72.3822V54.1022L59.0157 63.3022V81.5822ZM76.6088 112.922C75.476 113.582 74.1107 113.432 72.5034 112.472C70.8961 111.522 69.5309 110.042 68.4077 108.032C67.2846 106.032 66.723 104.072 66.723 102.172V95.3222L72.5034 98.7722C74.1107 99.7222 75.476 101.202 76.6088 103.212C77.732 105.212 78.2936 107.162 78.2936 109.072C78.2936 110.982 77.732 112.262 76.6088 112.922Z" stroke="#00ACFF" stroke-width="1.5" stroke-linecap="round" stroke-linejoin="round"/>
<path id="Vector_2" d="M35.8741 76.9219V83.7819C35.8741 85.6819 35.3125 86.9619 34.1893 87.6319C33.0661 88.2919 31.7009 88.1419 30.0936 87.1819C28.4863 86.2319 27.1209 84.7419 25.9978 82.7419C24.8746 80.7419 24.3131 78.7819 24.3131 76.8819C24.3131 74.9819 24.8746 73.6919 25.9978 73.0319C27.1209 72.3719 28.4863 72.5219 30.0936 73.4719L35.8741 76.9219Z" stroke="#00ACFF" stroke-width="1.5" stroke-linecap="round" stroke-linejoin="round"/>
<path id="Vector_3" d="M78.2933 109.072C78.2933 110.972 77.7317 112.262 76.6085 112.922C75.4757 113.582 74.1104 113.432 72.5031 112.472C70.8958 111.522 69.5306 110.042 68.4074 108.032C67.2842 106.032 66.7227 104.072 66.7227 102.172V95.3222L72.5031 98.7722C74.1104 99.7222 75.4757 101.202 76.6085 103.212C77.7317 105.212 78.2933 107.162 78.2933 109.072Z" stroke="#00ACFF" stroke-width="1.5" stroke-linecap="round" stroke-linejoin="round"/>
<path id="Vector_4" d="M35.8741 33.5121V40.3721L30.0936 36.9221C28.4863 35.9621 27.1209 34.4821 25.9978 32.4821C24.8746 30.4721 24.3131 28.5221 24.3131 26.6221C24.3131 24.7221 24.8746 23.4321 25.9978 22.7721C27.1209 22.1021 28.4863 22.2521 30.0936 23.2121C31.7009 24.1721 33.0661 25.6521 34.1893 27.6521C35.3125 29.6621 35.8741 31.6121 35.8741 33.5121Z" stroke="#00ACFF" stroke-width="1.5" stroke-linecap="round" stroke-linejoin="round"/>
<path id="Vector_5" d="M78.2933 58.802C78.2933 60.712 77.7317 61.992 76.6085 62.652C75.4757 63.312 74.1104 63.1719 72.5031 62.2119L66.7227 58.762L76.9087 53.502C77.8285 55.312 78.2933 57.082 78.2933 58.802Z" stroke="#00ACFF" stroke-width="1.5" stroke-linecap="round" stroke-linejoin="round"/>
<path id="Vector_6" d="M86.0877 70.2719V76.1819L77.8769 80.4219L66.7227 86.1819V67.9019L72.5031 71.3519C76.2309 73.5719 79.4165 73.9119 82.0501 72.3519L86.0877 70.2719Z" stroke="#00ACFF" stroke-width="1.5" stroke-linecap="round" stroke-linejoin="round"/>
<path id="Vector_7" d="M59.0163 64.4219V81.5819L52.8775 77.9219L46.061 73.8519L43.592 72.3819L44.8507 71.7319L54.7463 66.6219L59.0163 64.4219Z" stroke="#00ACFF" stroke-width="1.5" stroke-linecap="round" stroke-linejoin="round"/>
<path id="Vector_8" d="M59.0163 63.3022V64.4222L54.7463 66.6222L44.8507 71.7322L43.592 72.3822V54.1022L59.0163 63.3022Z" stroke="#00ACFF" stroke-width="1.5" stroke-linecap="round" stroke-linejoin="round"/>
<path id="Vector_9" d="M62.9559 28.1121V34.9721L43.5908 44.9721V38.1121C43.5908 34.9021 42.8937 31.6221 41.5091 28.2721C40.9862 27.0021 40.3665 25.7321 39.6403 24.4421C39.1272 23.5421 38.6043 22.6821 38.0524 21.8721C35.7577 18.4621 33.1046 15.8621 30.0934 14.0721C26.6561 12.0221 23.6738 11.5721 21.166 12.7421L39.9114 3.06203C42.545 1.51203 45.7307 1.85203 49.4584 4.07204C53.1862 6.29204 56.3621 9.75204 59.0054 14.4421C61.6391 19.1421 62.9559 23.6921 62.9559 28.1121Z" stroke="#00ACFF" stroke-width="1.5" stroke-linecap="round" stroke-linejoin="round"/>
<path id="Vector_10" d="M76.9087 53.502L66.7227 58.762V51.912C66.7227 50.002 67.2842 48.722 68.4074 48.062C68.6301 47.932 68.8625 47.832 69.0949 47.762C70.0728 47.482 71.2154 47.732 72.5031 48.502C73.8006 49.272 74.9335 50.382 75.9114 51.832C76.1535 52.182 76.3858 52.552 76.6085 52.942C76.715 53.132 76.8119 53.312 76.9087 53.502Z" stroke="#00ACFF" stroke-width="1.5" stroke-linecap="round" stroke-linejoin="round"/>
<path id="Vector_11" d="M105.365 53.402C105.365 57.822 104.048 60.802 101.415 62.352L100.689 62.722L86.0874 70.272L82.0497 72.352C84.6834 70.802 86.0002 67.822 86.0002 63.402C86.0002 59.252 84.8383 54.992 82.5145 50.602C82.3693 50.312 82.2144 50.032 82.0497 49.742C80.8007 47.512 79.4258 45.562 77.925 43.892C76.2693 42.042 74.4586 40.532 72.5028 39.362C70.5469 38.192 68.7364 37.552 67.0806 37.432C65.8316 37.322 64.6599 37.522 63.5851 38.032L65.9961 36.782L82.3306 28.352C84.9643 26.802 88.1401 27.142 91.8678 29.362C95.5956 31.582 98.7812 35.042 101.415 39.742C104.048 44.432 105.365 48.982 105.365 53.402Z" stroke="#00ACFF" stroke-width="1.5" stroke-linecap="round" stroke-linejoin="round"/>
<path id="Vector_12" d="M55.9649 88.9021L39.6401 97.3321C42.2738 95.7821 43.5906 92.7921 43.5906 88.3821V81.5221L44.0263 81.7821L54.8998 88.2721L55.9649 88.9021Z" stroke="#00ACFF" stroke-width="1.5" stroke-linecap="round" stroke-linejoin="round"/>
<path id="Vector_13" d="M65.9963 36.7822L63.5853 38.0322L62.9656 38.3522C60.332 39.9122 59.0152 42.8922 59.0152 47.3122V54.1622L55.239 51.9122L43.5909 44.9722L62.956 34.9722L65.9963 36.7822Z" stroke="#00ACFF" stroke-width="1.5" stroke-linecap="round" stroke-linejoin="round"/>
<path id="Vector_14" d="M35.874 55.4219V67.7819L30.0936 64.3419C26.7048 62.3119 23.7612 61.8519 21.2728 62.9619L35.874 55.4219Z" stroke="#00ACFF" stroke-width="1.5" stroke-linecap="round" stroke-linejoin="round"/>
<path id="Vector_15" d="M105.366 103.672C105.366 108.082 104.049 111.072 101.415 112.622L100.796 112.942L82.0501 122.622C84.6838 121.072 86.0006 118.082 86.0006 113.672C86.0006 110.462 85.3035 107.172 83.9092 103.812C83.3863 102.552 82.7666 101.282 82.0501 100.002C81.5466 99.112 81.0238 98.262 80.4815 97.452C78.1771 94.042 75.5241 91.432 72.5031 89.632L66.7227 86.182L77.8769 80.422L86.0877 76.182L91.8682 79.632C95.596 81.852 98.7815 85.312 101.415 90.002C104.049 94.692 105.366 99.252 105.366 103.672Z" stroke="#00ACFF" stroke-width="1.5" stroke-linecap="round" stroke-linejoin="round"/>
</g>
</svg>
