<svg width="130" height="32" viewBox="0 0 130 32" fill="none" xmlns="http://www.w3.org/2000/svg">
<path d="M0 16C0 7.16344 7.16344 0 16 0H114C122.837 0 130 7.16344 130 16C130 24.8366 122.837 32 114 32H16C7.16344 32 0 24.8366 0 16Z" fill="url(#paint0_linear_105_13543)"/>
<path d="M14.0962 15.1273L14.2342 14.9894C15.5533 13.6702 17.6921 13.6702 19.0113 14.9894C20.3304 16.3085 20.3304 18.4473 19.0113 19.7665L17.1004 21.6773C15.7813 22.9965 13.6425 22.9965 12.3234 21.6773C11.0042 20.3581 11.0042 18.2194 12.3234 16.9002L12.6329 16.5906" stroke="white" stroke-width="1.5" stroke-linecap="round"/>
<path d="M19.3677 15.4094L19.6773 15.0998C20.9965 13.7806 20.9965 11.6419 19.6773 10.3227C18.3581 9.00355 16.2194 9.00355 14.9002 10.3227L12.9894 12.2335C11.6702 13.5527 11.6702 15.6915 12.9894 17.0106C14.3085 18.3298 16.4473 18.3298 17.7665 17.0106L17.9044 16.8727" stroke="white" stroke-width="1.5" stroke-linecap="round"/>
<path d="M29.4091 22V10.3636H30.75V14.6591H30.8636C30.9621 14.5076 31.0985 14.3144 31.2727 14.0795C31.4508 13.8409 31.7045 13.6288 32.0341 13.4432C32.3674 13.2538 32.8182 13.1591 33.3864 13.1591C34.1212 13.1591 34.7689 13.3428 35.3295 13.7102C35.8902 14.0777 36.3277 14.5985 36.642 15.2727C36.9564 15.947 37.1136 16.7424 37.1136 17.6591C37.1136 18.5833 36.9564 19.3845 36.642 20.0625C36.3277 20.7367 35.892 21.2595 35.3352 21.6307C34.7784 21.9981 34.1364 22.1818 33.4091 22.1818C32.8485 22.1818 32.3996 22.089 32.0625 21.9034C31.7254 21.714 31.4659 21.5 31.2841 21.2614C31.1023 21.0189 30.9621 20.8182 30.8636 20.6591H30.7045V22H29.4091ZM30.7273 17.6364C30.7273 18.2955 30.8239 18.8769 31.017 19.3807C31.2102 19.8807 31.4924 20.2727 31.8636 20.5568C32.2348 20.8371 32.6894 20.9773 33.2273 20.9773C33.7879 20.9773 34.2557 20.8295 34.6307 20.5341C35.0095 20.2348 35.2936 19.8333 35.483 19.3295C35.6761 18.822 35.7727 18.2576 35.7727 17.6364C35.7727 17.0227 35.678 16.4697 35.4886 15.9773C35.303 15.4811 35.0208 15.089 34.642 14.8011C34.267 14.5095 33.7955 14.3636 33.2273 14.3636C32.6818 14.3636 32.2235 14.5019 31.8523 14.7784C31.4811 15.0511 31.2008 15.4337 31.0114 15.9261C30.822 16.4148 30.7273 16.9848 30.7273 17.6364ZM41.733 22.2045C41.1799 22.2045 40.678 22.1004 40.2273 21.892C39.7765 21.6799 39.4186 21.375 39.1534 20.9773C38.8883 20.5758 38.7557 20.0909 38.7557 19.5227C38.7557 19.0227 38.8542 18.6174 39.0511 18.3068C39.2481 17.9924 39.5114 17.7462 39.8409 17.5682C40.1705 17.3902 40.5341 17.2576 40.9318 17.1705C41.3333 17.0795 41.7367 17.0076 42.142 16.9545C42.6723 16.8864 43.1023 16.8352 43.4318 16.8011C43.7652 16.7633 44.0076 16.7008 44.1591 16.6136C44.3144 16.5265 44.392 16.375 44.392 16.1591V16.1136C44.392 15.553 44.2386 15.1174 43.9318 14.8068C43.6288 14.4962 43.1686 14.3409 42.5511 14.3409C41.911 14.3409 41.4091 14.4811 41.0455 14.7614C40.6818 15.0417 40.4261 15.3409 40.2784 15.6591L39.0057 15.2045C39.233 14.6742 39.536 14.2614 39.9148 13.9659C40.2973 13.6667 40.714 13.4583 41.1648 13.3409C41.6193 13.2197 42.0663 13.1591 42.5057 13.1591C42.786 13.1591 43.108 13.1932 43.4716 13.2614C43.839 13.3258 44.1932 13.4602 44.5341 13.6648C44.8788 13.8693 45.1648 14.178 45.392 14.5909C45.6193 15.0038 45.733 15.5568 45.733 16.25V22H44.392V20.8182H44.3239C44.233 21.0076 44.0814 21.2102 43.8693 21.4261C43.6572 21.642 43.375 21.8258 43.0227 21.9773C42.6705 22.1288 42.2405 22.2045 41.733 22.2045ZM41.9375 21C42.4678 21 42.9148 20.8958 43.2784 20.6875C43.6458 20.4792 43.9223 20.2102 44.108 19.8807C44.2973 19.5511 44.392 19.2045 44.392 18.8409V17.6136C44.3352 17.6818 44.2102 17.7443 44.017 17.8011C43.8277 17.8542 43.608 17.9015 43.358 17.9432C43.1117 17.9811 42.8712 18.0152 42.6364 18.0455C42.4053 18.072 42.2178 18.0947 42.0739 18.1136C41.7254 18.1591 41.3996 18.233 41.0966 18.3352C40.7973 18.4337 40.5549 18.5833 40.3693 18.7841C40.1875 18.9811 40.0966 19.25 40.0966 19.5909C40.0966 20.0568 40.2689 20.4091 40.6136 20.6477C40.9621 20.8826 41.4034 21 41.9375 21ZM54.3622 15.2273L53.1577 15.5682C53.0819 15.3674 52.9702 15.1723 52.8224 14.983C52.6785 14.7898 52.4815 14.6307 52.2315 14.5057C51.9815 14.3807 51.6615 14.3182 51.2713 14.3182C50.7372 14.3182 50.2921 14.4413 49.9361 14.6875C49.5838 14.9299 49.4077 15.2386 49.4077 15.6136C49.4077 15.947 49.5289 16.2102 49.7713 16.4034C50.0137 16.5966 50.3925 16.7576 50.9077 16.8864L52.2031 17.2045C52.9834 17.3939 53.5649 17.6837 53.9474 18.0739C54.33 18.4602 54.5213 18.9583 54.5213 19.5682C54.5213 20.0682 54.3774 20.5152 54.0895 20.9091C53.8054 21.303 53.4077 21.6136 52.8963 21.8409C52.3849 22.0682 51.7902 22.1818 51.1122 22.1818C50.2221 22.1818 49.4853 21.9886 48.902 21.6023C48.3187 21.2159 47.9493 20.6515 47.794 19.9091L49.0668 19.5909C49.188 20.0606 49.4171 20.4129 49.7543 20.6477C50.0952 20.8826 50.5402 21 51.0895 21C51.7145 21 52.2107 20.8674 52.5781 20.6023C52.9493 20.3333 53.1349 20.0114 53.1349 19.6364C53.1349 19.3333 53.0289 19.0795 52.8168 18.875C52.6046 18.6667 52.2789 18.5114 51.8395 18.4091L50.3849 18.0682C49.5857 17.8788 48.9986 17.5852 48.6236 17.1875C48.2524 16.786 48.0668 16.2841 48.0668 15.6818C48.0668 15.1894 48.205 14.7538 48.4815 14.375C48.7618 13.9962 49.1425 13.6989 49.6236 13.483C50.1084 13.267 50.6577 13.1591 51.2713 13.1591C52.1349 13.1591 52.813 13.3485 53.3054 13.7273C53.8016 14.1061 54.1539 14.6061 54.3622 15.2273ZM60.1989 22.1818C59.358 22.1818 58.6326 21.9962 58.0227 21.625C57.4167 21.25 56.9489 20.7273 56.6193 20.0568C56.2936 19.3826 56.1307 18.5985 56.1307 17.7045C56.1307 16.8106 56.2936 16.0227 56.6193 15.3409C56.9489 14.6553 57.4072 14.1212 57.9943 13.7386C58.5852 13.3523 59.2746 13.1591 60.0625 13.1591C60.517 13.1591 60.9659 13.2348 61.4091 13.3864C61.8523 13.5379 62.2557 13.7841 62.6193 14.125C62.983 14.4621 63.2727 14.9091 63.4886 15.4659C63.7045 16.0227 63.8125 16.7083 63.8125 17.5227V18.0909H57.0852V16.9318H62.4489C62.4489 16.4394 62.3504 16 62.1534 15.6136C61.9602 15.2273 61.6837 14.9223 61.3239 14.6989C60.9678 14.4754 60.5473 14.3636 60.0625 14.3636C59.5284 14.3636 59.0663 14.4962 58.6761 14.7614C58.2898 15.0227 57.9924 15.3636 57.7841 15.7841C57.5758 16.2045 57.4716 16.6553 57.4716 17.1364V17.9091C57.4716 18.5682 57.5852 19.1269 57.8125 19.5852C58.0436 20.0398 58.3636 20.3864 58.7727 20.625C59.1818 20.8598 59.6572 20.9773 60.1989 20.9773C60.5511 20.9773 60.8693 20.928 61.1534 20.8295C61.4413 20.7273 61.6894 20.5758 61.8977 20.375C62.1061 20.1705 62.267 19.9167 62.3807 19.6136L63.6761 19.9773C63.5398 20.4167 63.3106 20.803 62.9886 21.1364C62.6667 21.4659 62.2689 21.7235 61.7955 21.9091C61.322 22.0909 60.7898 22.1818 60.1989 22.1818ZM65.8523 25.2727V13.2727H67.1477V14.6591H67.3068C67.4053 14.5076 67.5417 14.3144 67.7159 14.0795C67.8939 13.8409 68.1477 13.6288 68.4773 13.4432C68.8106 13.2538 69.2614 13.1591 69.8295 13.1591C70.5644 13.1591 71.2121 13.3428 71.7727 13.7102C72.3333 14.0777 72.7708 14.5985 73.0852 15.2727C73.3996 15.947 73.5568 16.7424 73.5568 17.6591C73.5568 18.5833 73.3996 19.3845 73.0852 20.0625C72.7708 20.7367 72.3352 21.2595 71.7784 21.6307C71.2216 21.9981 70.5795 22.1818 69.8523 22.1818C69.2917 22.1818 68.8428 22.089 68.5057 21.9034C68.1686 21.714 67.9091 21.5 67.7273 21.2614C67.5455 21.0189 67.4053 20.8182 67.3068 20.6591H67.1932V25.2727H65.8523ZM67.1705 17.6364C67.1705 18.2955 67.267 18.8769 67.4602 19.3807C67.6534 19.8807 67.9356 20.2727 68.3068 20.5568C68.678 20.8371 69.1326 20.9773 69.6705 20.9773C70.2311 20.9773 70.6989 20.8295 71.0739 20.5341C71.4527 20.2348 71.7367 19.8333 71.9261 19.3295C72.1193 18.822 72.2159 18.2576 72.2159 17.6364C72.2159 17.0227 72.1212 16.4697 71.9318 15.9773C71.7462 15.4811 71.464 15.089 71.0852 14.8011C70.7102 14.5095 70.2386 14.3636 69.6705 14.3636C69.125 14.3636 68.6667 14.5019 68.2955 14.7784C67.9242 15.0511 67.6439 15.4337 67.4545 15.9261C67.2652 16.4148 67.1705 16.9848 67.1705 17.6364ZM78.1705 22.2045C77.6174 22.2045 77.1155 22.1004 76.6648 21.892C76.214 21.6799 75.8561 21.375 75.5909 20.9773C75.3258 20.5758 75.1932 20.0909 75.1932 19.5227C75.1932 19.0227 75.2917 18.6174 75.4886 18.3068C75.6856 17.9924 75.9489 17.7462 76.2784 17.5682C76.608 17.3902 76.9716 17.2576 77.3693 17.1705C77.7708 17.0795 78.1742 17.0076 78.5795 16.9545C79.1098 16.8864 79.5398 16.8352 79.8693 16.8011C80.2027 16.7633 80.4451 16.7008 80.5966 16.6136C80.7519 16.5265 80.8295 16.375 80.8295 16.1591V16.1136C80.8295 15.553 80.6761 15.1174 80.3693 14.8068C80.0663 14.4962 79.6061 14.3409 78.9886 14.3409C78.3485 14.3409 77.8466 14.4811 77.483 14.7614C77.1193 15.0417 76.8636 15.3409 76.7159 15.6591L75.4432 15.2045C75.6705 14.6742 75.9735 14.2614 76.3523 13.9659C76.7348 13.6667 77.1515 13.4583 77.6023 13.3409C78.0568 13.2197 78.5038 13.1591 78.9432 13.1591C79.2235 13.1591 79.5455 13.1932 79.9091 13.2614C80.2765 13.3258 80.6307 13.4602 80.9716 13.6648C81.3163 13.8693 81.6023 14.178 81.8295 14.5909C82.0568 15.0038 82.1705 15.5568 82.1705 16.25V22H80.8295V20.8182H80.7614C80.6705 21.0076 80.5189 21.2102 80.3068 21.4261C80.0947 21.642 79.8125 21.8258 79.4602 21.9773C79.108 22.1288 78.678 22.2045 78.1705 22.2045ZM78.375 21C78.9053 21 79.3523 20.8958 79.7159 20.6875C80.0833 20.4792 80.3598 20.2102 80.5455 19.8807C80.7348 19.5511 80.8295 19.2045 80.8295 18.8409V17.6136C80.7727 17.6818 80.6477 17.7443 80.4545 17.8011C80.2652 17.8542 80.0455 17.9015 79.7955 17.9432C79.5492 17.9811 79.3087 18.0152 79.0739 18.0455C78.8428 18.072 78.6553 18.0947 78.5114 18.1136C78.1629 18.1591 77.8371 18.233 77.5341 18.3352C77.2348 18.4337 76.9924 18.5833 76.8068 18.7841C76.625 18.9811 76.5341 19.25 76.5341 19.5909C76.5341 20.0568 76.7064 20.4091 77.0511 20.6477C77.3996 20.8826 77.8409 21 78.375 21ZM85.169 25.2727C84.9418 25.2727 84.7391 25.2538 84.5611 25.2159C84.383 25.1818 84.2599 25.1477 84.1918 25.1136L84.5327 23.9318C84.8584 24.0152 85.1463 24.0455 85.3963 24.0227C85.6463 24 85.8679 23.8883 86.0611 23.6875C86.258 23.4905 86.438 23.1705 86.6009 22.7273L86.8509 22.0455L83.6236 13.2727H85.0781L87.4872 20.2273H87.5781L89.9872 13.2727H91.4418L87.7372 23.2727C87.5705 23.7235 87.3641 24.0966 87.1179 24.392C86.8717 24.6913 86.5857 24.9129 86.2599 25.0568C85.938 25.2008 85.5743 25.2727 85.169 25.2727ZM93.642 22.0909C93.3617 22.0909 93.1212 21.9905 92.9205 21.7898C92.7197 21.589 92.6193 21.3485 92.6193 21.0682C92.6193 20.7879 92.7197 20.5473 92.9205 20.3466C93.1212 20.1458 93.3617 20.0455 93.642 20.0455C93.9223 20.0455 94.1629 20.1458 94.3636 20.3466C94.5644 20.5473 94.6648 20.7879 94.6648 21.0682C94.6648 21.2538 94.6174 21.4242 94.5227 21.5795C94.4318 21.7348 94.3087 21.8598 94.1534 21.9545C94.0019 22.0455 93.8314 22.0909 93.642 22.0909ZM98.4119 10.3636V22H97.071V10.3636H98.4119ZM100.868 22V13.2727H102.209V22H100.868ZM101.55 11.8182C101.288 11.8182 101.063 11.7292 100.874 11.5511C100.688 11.3731 100.595 11.1591 100.595 10.9091C100.595 10.6591 100.688 10.4451 100.874 10.267C101.063 10.089 101.288 10 101.55 10C101.811 10 102.035 10.089 102.22 10.267C102.41 10.4451 102.504 10.6591 102.504 10.9091C102.504 11.1591 102.41 11.3731 102.22 11.5511C102.035 11.7292 101.811 11.8182 101.55 11.8182ZM106.006 16.75V22H104.665V13.2727H105.96V14.6364H106.074C106.278 14.1932 106.589 13.8371 107.006 13.5682C107.422 13.2955 107.96 13.1591 108.619 13.1591C109.21 13.1591 109.727 13.2803 110.17 13.5227C110.614 13.7614 110.958 14.125 111.205 14.6136C111.451 15.0985 111.574 15.7121 111.574 16.4545V22H110.233V16.5455C110.233 15.8598 110.055 15.3258 109.699 14.9432C109.343 14.5568 108.854 14.3636 108.233 14.3636C107.805 14.3636 107.422 14.4564 107.085 14.642C106.752 14.8277 106.489 15.0985 106.295 15.4545C106.102 15.8106 106.006 16.2424 106.006 16.75ZM115.274 18.8182L115.251 17.1591H115.524L119.342 13.2727H121.001L116.933 17.3864H116.82L115.274 18.8182ZM114.024 22V10.3636H115.365V22H114.024ZM119.57 22L116.161 17.6818L117.115 16.75L121.274 22H119.57Z" fill="white"/>
<defs>
<linearGradient id="paint0_linear_105_13543" x1="-9.8977" y1="-0.464477" x2="159" y2="43.5" gradientUnits="userSpaceOnUse">
<stop stop-color="#0065F5"/>
<stop offset="1" stop-color="#00ACFF"/>
</linearGradient>
</defs>
</svg>
