<svg width="82" height="82" viewBox="0 0 82 82" fill="none" xmlns="http://www.w3.org/2000/svg">
<path d="M0.267578 21.517C0.267578 9.77987 9.78238 0.265045 21.5195 0.265045H60.4813C72.2184 0.265045 81.7332 9.77985 81.7332 21.517V60.4788C81.7332 72.2159 72.2184 81.7307 60.4813 81.7307H21.5195C9.7824 81.7307 0.267578 72.2159 0.267578 60.4788V21.517Z" fill="#F9FAFB"/>
<path d="M0.267578 21.517C0.267578 9.77987 9.78238 0.265045 21.5195 0.265045H60.4813C72.2184 0.265045 81.7332 9.77985 81.7332 21.517V60.4788C81.7332 72.2159 72.2184 81.7307 60.4813 81.7307H21.5195C9.7824 81.7307 0.267578 72.2159 0.267578 60.4788V21.517Z" fill="#F9FAFB"/>
<path d="M43.2122 48.366H48.3776C52.453 48.366 55.7568 45.0623 55.7568 40.9869C55.7568 36.9115 52.453 33.6078 48.3776 33.6078H43.2122M38.7848 48.366H33.6194C29.544 48.366 26.2402 45.0623 26.2402 40.9869C26.2402 36.9115 29.544 33.6078 33.6194 33.6078H38.7848" stroke="#121217" stroke-width="2.65649" stroke-linecap="round"/>
<path d="M36.5723 40.9869H45.4272" stroke="#121217" stroke-width="2.65649" stroke-linecap="round"/>
</svg>
