<svg width="88" height="28" viewBox="0 0 88 28" fill="none" xmlns="http://www.w3.org/2000/svg">
<path d="M1.37713 21V7.90909H3.69105V12.8054H3.78693C3.90625 12.5668 4.07457 12.3132 4.2919 12.0447C4.50923 11.772 4.80327 11.5398 5.17401 11.348C5.54474 11.152 6.01776 11.054 6.59304 11.054C7.35156 11.054 8.03551 11.2479 8.64489 11.6357C9.25852 12.0192 9.74432 12.5881 10.1023 13.3423C10.4645 14.0923 10.6456 15.0128 10.6456 16.1037C10.6456 17.1818 10.4688 18.098 10.1151 18.8523C9.76136 19.6065 9.27983 20.1818 8.67045 20.5781C8.06108 20.9744 7.37074 21.1726 6.59943 21.1726C6.03693 21.1726 5.57031 21.0788 5.19957 20.8913C4.82884 20.7038 4.53054 20.478 4.30469 20.2138C4.0831 19.9453 3.91051 19.6918 3.78693 19.4531H3.6527V21H1.37713ZM3.64631 16.0909C3.64631 16.7259 3.7358 17.282 3.91477 17.7592C4.09801 18.2365 4.36009 18.6094 4.70099 18.8778C5.04616 19.142 5.46378 19.2741 5.95384 19.2741C6.4652 19.2741 6.89347 19.1378 7.23864 18.8651C7.58381 18.5881 7.84375 18.2109 8.01847 17.7337C8.19744 17.2521 8.28693 16.7045 8.28693 16.0909C8.28693 15.4815 8.19957 14.9403 8.02486 14.4673C7.85014 13.9943 7.5902 13.6236 7.24503 13.3551C6.89986 13.0866 6.46946 12.9524 5.95384 12.9524C5.45952 12.9524 5.03977 13.0824 4.6946 13.3423C4.34943 13.6023 4.08736 13.9666 3.90838 14.4354C3.73366 14.9041 3.64631 15.456 3.64631 16.0909ZM15.438 21.1982C14.8159 21.1982 14.2555 21.0874 13.7569 20.8658C13.2626 20.6399 12.8706 20.3075 12.5808 19.8686C12.2953 19.4297 12.1525 18.8885 12.1525 18.245C12.1525 17.6911 12.2548 17.233 12.4593 16.8707C12.6639 16.5085 12.943 16.2188 13.2967 16.0014C13.6504 15.7841 14.0488 15.62 14.492 15.5092C14.9395 15.3942 15.4018 15.3111 15.8791 15.2599C16.4544 15.2003 16.921 15.147 17.2789 15.1001C17.6369 15.049 17.8968 14.9723 18.0588 14.87C18.225 14.7635 18.3081 14.5994 18.3081 14.3778V14.3395C18.3081 13.858 18.1653 13.4851 17.8798 13.2209C17.5943 12.9567 17.1831 12.8246 16.6461 12.8246C16.0794 12.8246 15.6298 12.9482 15.2974 13.1953C14.9693 13.4425 14.7477 13.7344 14.6326 14.071L12.4721 13.7642C12.6426 13.1676 12.9238 12.669 13.3159 12.2685C13.7079 11.8636 14.1873 11.5611 14.7541 11.3608C15.3208 11.1562 15.9473 11.054 16.6333 11.054C17.1064 11.054 17.5772 11.1094 18.046 11.2202C18.5147 11.331 18.943 11.5142 19.3308 11.7699C19.7186 12.0213 20.0297 12.3643 20.264 12.799C20.5027 13.2337 20.622 13.777 20.622 14.429V21H18.3976V19.6513H18.3208C18.1802 19.924 17.9821 20.1797 17.7264 20.4183C17.475 20.6527 17.1575 20.8423 16.774 20.9872C16.3947 21.1278 15.9494 21.1982 15.438 21.1982ZM16.0389 19.4979C16.5034 19.4979 16.9061 19.4062 17.247 19.223C17.5879 19.0355 17.85 18.7884 18.0332 18.4815C18.2207 18.1747 18.3145 17.8402 18.3145 17.478V16.321C18.242 16.3807 18.1184 16.4361 17.9437 16.4872C17.7733 16.5384 17.5815 16.5831 17.3684 16.6214C17.1554 16.6598 16.9444 16.6939 16.7356 16.7237C16.5268 16.7536 16.3457 16.7791 16.1923 16.8004C15.8471 16.8473 15.5382 16.924 15.2654 17.0305C14.9927 17.1371 14.7775 17.2862 14.6199 17.478C14.4622 17.6655 14.3833 17.9084 14.3833 18.2067C14.3833 18.6328 14.5389 18.9545 14.85 19.1719C15.161 19.3892 15.5574 19.4979 16.0389 19.4979ZM30.7086 13.777L28.5993 14.0071C28.5396 13.794 28.4352 13.5938 28.286 13.4062C28.1412 13.2188 27.9451 13.0675 27.698 12.9524C27.4508 12.8374 27.1483 12.7798 26.7903 12.7798C26.3088 12.7798 25.9039 12.8842 25.5758 13.093C25.252 13.3018 25.0922 13.5724 25.0964 13.9048C25.0922 14.1903 25.1966 14.4226 25.4096 14.6016C25.627 14.7805 25.9849 14.9276 26.4835 15.0426L28.1582 15.4006C29.0872 15.6009 29.7775 15.9183 30.2292 16.353C30.6852 16.7876 30.9153 17.3565 30.9196 18.0597C30.9153 18.6776 30.7342 19.223 30.3762 19.696C30.0225 20.1648 29.5304 20.5312 28.8997 20.7955C28.269 21.0597 27.5446 21.1918 26.7264 21.1918C25.5247 21.1918 24.5574 20.9403 23.8244 20.4375C23.0914 19.9304 22.6547 19.2251 22.514 18.3217L24.7704 18.1044C24.8727 18.5476 25.09 18.8821 25.4224 19.108C25.7548 19.3338 26.1873 19.4467 26.72 19.4467C27.2697 19.4467 27.7108 19.3338 28.0431 19.108C28.3798 18.8821 28.5481 18.603 28.5481 18.2706C28.5481 17.9893 28.4395 17.7571 28.2221 17.5739C28.0091 17.3906 27.6767 17.25 27.225 17.152L25.5502 16.8004C24.6085 16.6044 23.9118 16.2741 23.46 15.8097C23.0083 15.3409 22.7846 14.7486 22.7889 14.0327C22.7846 13.4276 22.9487 12.9034 23.2811 12.4602C23.6177 12.0128 24.0843 11.6676 24.6809 11.4247C25.2818 11.1776 25.9743 11.054 26.7583 11.054C27.9089 11.054 28.8145 11.299 29.475 11.7891C30.1397 12.2791 30.551 12.9418 30.7086 13.777ZM37.1742 21.1918C36.1898 21.1918 35.3397 20.9872 34.6238 20.5781C33.9121 20.1648 33.3645 19.581 32.981 18.8267C32.5975 18.0682 32.4057 17.1754 32.4057 16.1484C32.4057 15.1385 32.5975 14.2521 32.981 13.4893C33.3688 12.7223 33.91 12.1257 34.6046 11.6996C35.2992 11.2692 36.1152 11.054 37.0527 11.054C37.6578 11.054 38.2289 11.152 38.7658 11.348C39.307 11.5398 39.7843 11.8381 40.1976 12.2429C40.6152 12.6477 40.9434 13.1634 41.182 13.7898C41.4206 14.4119 41.54 15.1534 41.54 16.0142V16.7237H33.4924V15.1641H39.3219C39.3176 14.7209 39.2218 14.3267 39.0343 13.9815C38.8468 13.6321 38.5847 13.3572 38.248 13.157C37.9157 12.9567 37.5279 12.8565 37.0847 12.8565C36.6117 12.8565 36.1962 12.9716 35.8382 13.2017C35.4803 13.4276 35.2012 13.7259 35.0009 14.0966C34.8049 14.4631 34.7047 14.8658 34.7005 15.3047V16.6662C34.7005 17.2372 34.8049 17.7273 35.0137 18.1364C35.2225 18.5412 35.5144 18.8523 35.8894 19.0696C36.2644 19.2827 36.7033 19.3892 37.2061 19.3892C37.5428 19.3892 37.8475 19.3423 38.1202 19.2486C38.3929 19.1506 38.6294 19.0078 38.8297 18.8203C39.03 18.6328 39.1813 18.4006 39.2836 18.1236L41.4441 18.3665C41.3077 18.9375 41.0478 19.4361 40.6642 19.8622C40.285 20.2841 39.7992 20.6122 39.2069 20.8466C38.6145 21.0767 37.937 21.1918 37.1742 21.1918ZM43.4975 24.6818V11.1818H45.7731V12.8054H45.9073C46.0266 12.5668 46.195 12.3132 46.4123 12.0447C46.6296 11.772 46.9237 11.5398 47.2944 11.348C47.6651 11.152 48.1381 11.054 48.7134 11.054C49.4719 11.054 50.1559 11.2479 50.7653 11.6357C51.3789 12.0192 51.8647 12.5881 52.2227 13.3423C52.5849 14.0923 52.766 15.0128 52.766 16.1037C52.766 17.1818 52.5891 18.098 52.2354 18.8523C51.8817 19.6065 51.4002 20.1818 50.7908 20.5781C50.1815 20.9744 49.4911 21.1726 48.7198 21.1726C48.1573 21.1726 47.6907 21.0788 47.32 20.8913C46.9492 20.7038 46.6509 20.478 46.4251 20.2138C46.2035 19.9453 46.0309 19.6918 45.9073 19.4531H45.8114V24.6818H43.4975ZM45.7667 16.0909C45.7667 16.7259 45.8562 17.282 46.0352 17.7592C46.2184 18.2365 46.4805 18.6094 46.8214 18.8778C47.1665 19.142 47.5842 19.2741 48.0742 19.2741C48.5856 19.2741 49.0138 19.1378 49.359 18.8651C49.7042 18.5881 49.9641 18.2109 50.1388 17.7337C50.3178 17.2521 50.4073 16.7045 50.4073 16.0909C50.4073 15.4815 50.32 14.9403 50.1452 14.4673C49.9705 13.9943 49.7106 13.6236 49.3654 13.3551C49.0202 13.0866 48.5898 12.9524 48.0742 12.9524C47.5799 12.9524 47.1602 13.0824 46.815 13.3423C46.4698 13.6023 46.2077 13.9666 46.0288 14.4354C45.854 14.9041 45.7667 15.456 45.7667 16.0909ZM57.5728 21.1982C56.9506 21.1982 56.3903 21.0874 55.8917 20.8658C55.3974 20.6399 55.0053 20.3075 54.7156 19.8686C54.43 19.4297 54.2873 18.8885 54.2873 18.245C54.2873 17.6911 54.3896 17.233 54.5941 16.8707C54.7987 16.5085 55.0778 16.2188 55.4315 16.0014C55.7852 15.7841 56.1836 15.62 56.6268 15.5092C57.0742 15.3942 57.5366 15.3111 58.0138 15.2599C58.5891 15.2003 59.0558 15.147 59.4137 15.1001C59.7717 15.049 60.0316 14.9723 60.1935 14.87C60.3597 14.7635 60.4428 14.5994 60.4428 14.3778V14.3395C60.4428 13.858 60.3001 13.4851 60.0146 13.2209C59.729 12.9567 59.3178 12.8246 58.7809 12.8246C58.2141 12.8246 57.7646 12.9482 57.4322 13.1953C57.104 13.4425 56.8825 13.7344 56.7674 14.071L54.6069 13.7642C54.7773 13.1676 55.0586 12.669 55.4506 12.2685C55.8427 11.8636 56.3221 11.5611 56.8888 11.3608C57.4556 11.1562 58.082 11.054 58.7681 11.054C59.2411 11.054 59.712 11.1094 60.1808 11.2202C60.6495 11.331 61.0778 11.5142 61.4656 11.7699C61.8533 12.0213 62.1644 12.3643 62.3988 12.799C62.6374 13.2337 62.7567 13.777 62.7567 14.429V21H60.5323V19.6513H60.4556C60.315 19.924 60.1168 20.1797 59.8612 20.4183C59.6097 20.6527 59.2923 20.8423 58.9087 20.9872C58.5295 21.1278 58.0842 21.1982 57.5728 21.1982ZM58.1737 19.4979C58.6381 19.4979 59.0408 19.4062 59.3817 19.223C59.7227 19.0355 59.9847 18.7884 60.168 18.4815C60.3555 18.1747 60.4492 17.8402 60.4492 17.478V16.321C60.3768 16.3807 60.2532 16.4361 60.0785 16.4872C59.908 16.5384 59.7163 16.5831 59.5032 16.6214C59.2901 16.6598 59.0792 16.6939 58.8704 16.7237C58.6616 16.7536 58.4805 16.7791 58.3271 16.8004C57.9819 16.8473 57.6729 16.924 57.4002 17.0305C57.1275 17.1371 56.9123 17.2862 56.7546 17.478C56.5969 17.6655 56.5181 17.9084 56.5181 18.2067C56.5181 18.6328 56.6737 18.9545 56.9847 19.1719C57.2958 19.3892 57.6921 19.4979 58.1737 19.4979ZM66.1701 24.6818C65.8548 24.6818 65.5629 24.6563 65.2944 24.6051C65.0302 24.5582 64.8192 24.5028 64.6616 24.4389L65.1985 22.6364C65.5352 22.7344 65.8356 22.7813 66.0998 22.777C66.364 22.7727 66.5962 22.6896 66.7965 22.5277C67.0011 22.37 67.1737 22.1058 67.3143 21.7351L67.5124 21.2045L63.9521 11.1818H66.4066L68.6694 18.5966H68.7717L71.0408 11.1818H73.5018L69.5707 22.1889C69.3874 22.7088 69.1445 23.1541 68.842 23.5249C68.5394 23.8999 68.1687 24.1854 67.7298 24.3814C67.2951 24.5817 66.7752 24.6818 66.1701 24.6818Z" fill="#121217"/>
<g clip-path="url(#clip0_110_15605)">
<path d="M83.0004 9C82.668 9 82.3652 9.1707 81.7597 9.51211L79.6411 10.7067C79.0356 11.0481 78.7328 11.2188 78.5666 11.5C78.4004 11.7812 78.4004 12.1226 78.4004 12.8054V15.1946C78.4004 15.5349 78.7454 15.7462 79.0562 15.6075C79.9644 15.2022 80.8907 14.8306 81.8334 14.494C81.9019 14.4808 81.9729 14.4904 82.0352 14.5213C82.0974 14.5522 82.1473 14.6026 82.1768 14.6644C82.2064 14.7262 82.2139 14.7959 82.1981 14.8624C82.1824 14.9289 82.1443 14.9883 82.09 15.0312C81.2412 15.5323 80.414 16.0644 79.6101 16.626C79.3687 16.7947 79.3845 17.1486 79.6411 17.2933L81.7597 18.4879C82.3652 18.8293 82.668 19 83.0004 19C83.3328 19 83.6356 18.8293 84.2411 18.4879L86.3597 17.2933C86.9652 16.9519 87.268 16.7812 87.4342 16.5C87.6004 16.2188 87.6004 15.8774 87.6004 15.1946V12.8054C87.6004 12.1226 87.6004 11.7812 87.4342 11.5C87.268 11.2188 86.9652 11.0481 86.3597 10.7067L84.2411 9.51211C83.6356 9.1707 83.3328 9 83.0004 9Z" fill="#0065F5"/>
<path d="M84.6767 11.4281C84.8086 11.0798 84.8745 10.9056 84.99 10.8988C84.9972 10.8983 85.0044 10.8983 85.0116 10.8988C85.1271 10.9056 85.193 11.0798 85.3249 11.4281L85.4929 11.8718C85.5193 11.9416 85.5325 11.9764 85.558 12.0023C85.5598 12.0041 85.5616 12.0059 85.5634 12.0076C85.5901 12.0324 85.6261 12.0452 85.6979 12.0708L86.155 12.2339C86.514 12.3619 86.6934 12.4259 86.7005 12.538C86.7009 12.5449 86.7009 12.5519 86.7005 12.5589C86.6934 12.671 86.514 12.735 86.155 12.863L85.6979 13.026C85.6261 13.0517 85.5901 13.0645 85.5634 13.0893C85.5616 13.091 85.5598 13.0928 85.558 13.0945C85.5325 13.1205 85.5193 13.1553 85.4929 13.225L85.3249 13.6687C85.193 14.0171 85.1271 14.1913 85.0116 14.1981C85.0044 14.1985 84.9972 14.1985 84.99 14.1981C84.8745 14.1913 84.8086 14.0171 84.6767 13.6687L84.5087 13.225C84.4823 13.1553 84.4691 13.1205 84.4435 13.0945C84.4418 13.0928 84.44 13.091 84.4381 13.0893C84.4114 13.0645 84.3755 13.0517 84.3037 13.026L83.8465 12.863C83.4876 12.735 83.3082 12.671 83.3011 12.5589C83.3007 12.5519 83.3007 12.5449 83.3011 12.538C83.3082 12.4259 83.4876 12.3619 83.8465 12.2339L84.3037 12.0708C84.3755 12.0452 84.4114 12.0324 84.4381 12.0076C84.44 12.0059 84.4418 12.0041 84.4435 12.0023C84.4691 11.9764 84.4823 11.9416 84.5087 11.8718L84.6767 11.4281Z" fill="white"/>
</g>
<defs>
<clipPath id="clip0_110_15605">
<rect width="10" height="10" fill="white" transform="translate(78 9)"/>
</clipPath>
</defs>
</svg>
