<svg width="24" height="24" viewBox="0 0 24 24" fill="none" xmlns="http://www.w3.org/2000/svg">
<g clip-path="url(#clip0_165_4479)">
<path d="M12 24C18.6274 24 24 18.6274 24 12C24 5.37258 18.6274 0 12 0C5.37258 0 0 5.37258 0 12C0 18.6274 5.37258 24 12 24Z" fill="#F0F0F0"/>
<path d="M12.0002 -0.000724792C7.24267 -0.000724792 3.13192 2.76795 1.19092 6.7819H22.8094C20.8685 2.76795 16.7577 -0.000724792 12.0002 -0.000724792Z" fill="black"/>
<path d="M12.0002 24.0001C7.24267 24.0001 3.13192 21.2314 1.19092 17.2175H22.8094C20.8685 21.2314 16.7577 24.0001 12.0002 24.0001Z" fill="#496E2D"/>
<path d="M23.4333 8.34706H0.566672C0.199078 9.49874 0 10.7257 0 11.9992C0 13.2728 0.199078 14.4997 0.566672 15.6514H23.4333C23.8009 14.4997 24 13.2728 24 11.9992C24 10.7257 23.8009 9.49874 23.4333 8.34706Z" fill="#A2001D"/>
<path d="M15.7369 5.54511L14.3158 4.88919L12.0003 10.1322L9.68478 4.88919L8.26367 5.54511L11.1384 11.9998L8.26367 18.4544L9.68478 19.1103L12.0003 13.8673L14.3158 19.1103L15.7369 18.4544L12.8622 11.9998L15.7369 5.54511Z" fill="#F0F0F0"/>
<path d="M12.9656 6.16323C12.4154 5.56243 12.0004 5.21706 12.0004 5.21706C12.0004 5.21706 11.5853 5.56239 11.0352 6.16323V17.836C11.5853 18.4369 12.0004 18.7823 12.0004 18.7823C12.0004 18.7823 12.4154 18.437 12.9656 17.8361V6.16323Z" fill="#F0F0F0"/>
<path d="M9.3916 8.40226V15.5981C9.97294 16.6282 10.6845 17.4725 11.2177 18.0323V5.96814C10.6845 6.52787 9.9729 7.37223 9.3916 8.40226Z" fill="#A2001D"/>
<path d="M14.6088 8.40283C14.0274 7.37276 13.316 6.52844 12.7827 5.96871V18.0329C13.3159 17.4731 14.0274 16.6288 14.6088 15.5987V8.40283Z" fill="#A2001D"/>
<path d="M14.6089 8.40091V15.5968C15.1974 14.5539 15.6524 13.3206 15.6524 11.9989C15.6524 10.6772 15.1974 9.44387 14.6089 8.40091Z" fill="black"/>
<path d="M9.39114 8.40091V15.5968C8.80263 14.5539 8.34766 13.3206 8.34766 11.9989C8.34766 10.6772 8.80263 9.44387 9.39114 8.40091Z" fill="black"/>
</g>
<defs>
<clipPath id="clip0_165_4479">
<rect width="24" height="24" fill="white"/>
</clipPath>
</defs>
</svg>
