<svg width="24" height="24" viewBox="0 0 24 24" fill="none" xmlns="http://www.w3.org/2000/svg">
<g clip-path="url(#clip0_165_2656)">
<path d="M12 24C18.6274 24 24 18.6274 24 12C24 5.37258 18.6274 0 12 0C5.37258 0 0 5.37258 0 12C0 18.6274 5.37258 24 12 24Z" fill="#6DA544"/>
<path d="M6.78296 14.3476C6.78296 15.2121 7.48374 15.9128 8.34816 15.9128H13.0438C13.0438 16.6332 13.6278 17.2172 14.3482 17.2172H15.9134C16.6337 17.2172 17.2177 16.6332 17.2177 15.9128V14.3476H6.78296Z" fill="#F0F0F0"/>
<path d="M17.3474 6.78308V10.4352C17.3474 11.0106 16.8793 11.4787 16.304 11.4787V13.0439C17.7424 13.0439 18.9126 11.8737 18.9126 10.4352V6.78308H17.3474Z" fill="#F0F0F0"/>
<path d="M6.1304 10.435C6.1304 11.0104 5.6623 11.4785 5.08691 11.4785V13.0437C6.52537 13.0437 7.6956 11.8734 7.6956 10.435V6.78282H6.1304V10.435Z" fill="#F0F0F0"/>
<path d="M16.5654 6.78308H15.0002V10.4353H16.5654V6.78308Z" fill="#F0F0F0"/>
<path d="M12.6522 8.87005C12.6522 9.01391 12.5351 9.13091 12.3913 9.13091C12.2475 9.13091 12.1304 9.01386 12.1304 8.87005V6.78308H10.5652V8.87005C10.5652 9.01391 10.4482 9.13091 10.3044 9.13091C10.1606 9.13091 10.0435 9.01386 10.0435 8.87005V6.78308H8.47827V8.87005C8.47827 9.87697 9.29746 10.6962 10.3044 10.6962C10.6922 10.6962 11.0518 10.5743 11.3479 10.3673C11.6439 10.5742 12.0036 10.6962 12.3914 10.6962C12.4695 10.6962 12.5462 10.6907 12.6217 10.6811C12.5108 11.138 12.0993 11.4787 11.6087 11.4787V13.0439C13.0472 13.0439 14.2174 11.8737 14.2174 10.4353V8.87005V6.78308H12.6522V8.87005H12.6522Z" fill="#F0F0F0"/>
<path d="M10.8261 11.4781H8.47827V13.0433H10.8261V11.4781Z" fill="#F0F0F0"/>
</g>
<defs>
<clipPath id="clip0_165_2656">
<rect width="24" height="24" fill="white"/>
</clipPath>
</defs>
</svg>
