<svg width="24" height="24" viewBox="0 0 24 24" fill="none" xmlns="http://www.w3.org/2000/svg">
<path d="M12 24C14.3734 24 16.6935 23.2962 18.6669 21.9776C20.6403 20.6591 22.1783 18.7849 23.0866 16.5922C23.9948 14.3995 24.2325 11.9867 23.7695 9.65892C23.3064 7.33115 22.1636 5.19295 20.4853 3.51472C18.8071 1.83649 16.6689 0.693605 14.3411 0.230582C12.0133 -0.232441 9.60055 0.00519936 7.40784 0.913451C5.21512 1.8217 3.34098 3.35977 2.0224 5.33316C0.703824 7.30655 3.63305e-05 9.62663 3.63305e-05 12C-0.00384869 13.577 0.303889 15.1391 0.905569 16.5968C1.50725 18.0545 2.39101 19.3789 3.50609 20.4939C4.62117 21.609 5.94558 22.4928 7.40324 23.0945C8.8609 23.6962 10.4231 24.0039 12 24Z" fill="#2775CA"/>
<path d="M15.3 13.9004C15.3 12.1549 14.2506 11.5495 12.1506 11.2996C10.6495 11.1 10.3506 10.6996 10.3506 10.0004C10.3506 9.3011 10.8502 8.84946 11.8495 8.84946C12.7506 8.84946 13.2502 9.14946 13.5 9.90001C13.5269 9.97232 13.5753 10.0346 13.6387 10.0785C13.7021 10.1224 13.7774 10.1458 13.8546 10.1455H14.6542C14.7005 10.1467 14.7466 10.1384 14.7896 10.1213C14.8327 10.1041 14.8717 10.0783 14.9045 10.0456C14.9373 10.0128 14.963 9.97372 14.9802 9.9307C14.9974 9.88767 15.0056 9.84159 15.0044 9.79528V9.74619C14.9078 9.20427 14.6349 8.70942 14.2281 8.33855C13.8213 7.96768 13.3035 7.74154 12.7549 7.69528V6.49528C12.7549 6.29564 12.6044 6.14619 12.3546 6.09601H11.604C11.4044 6.09601 11.2549 6.24546 11.2048 6.49528V7.64946C9.70039 7.85455 8.75021 8.84946 8.75021 10.0996C8.75021 11.7502 9.75057 12.4004 11.8506 12.6502C13.2502 12.9 13.7051 13.1956 13.7051 13.9996C13.7051 14.8036 13.0058 15.3502 12.0557 15.3502C10.7553 15.3502 10.3102 14.8047 10.1553 14.0498C10.141 13.9655 10.0976 13.8888 10.0326 13.8332C9.96762 13.7776 9.88519 13.7466 9.79967 13.7455H8.94548C8.89921 13.7444 8.85321 13.7528 8.81025 13.77C8.76729 13.7872 8.72827 13.813 8.69554 13.8457C8.66282 13.8784 8.63706 13.9175 8.61983 13.9604C8.6026 14.0034 8.59426 14.0494 8.5953 14.0956V14.1458C8.79603 15.396 9.59567 16.296 11.2462 16.5458V17.7458C11.2462 17.9455 11.3957 18.096 11.6455 18.1462H12.396C12.5957 18.1462 12.7462 17.9956 12.7953 17.7458V16.5458C14.2953 16.296 15.2957 15.2455 15.2957 13.896L15.3 13.9004Z" fill="white"/>
<path d="M9.44946 19.1498C8.01079 18.6221 6.76882 17.6655 5.89144 16.4091C5.01406 15.1527 4.54356 13.6573 4.54356 12.1249C4.54356 10.5925 5.01406 9.09707 5.89144 7.84072C6.76882 6.58437 8.01079 5.62769 9.44946 5.1C9.54545 5.05848 9.62608 4.98801 9.68006 4.89842C9.73404 4.80884 9.75869 4.70463 9.75055 4.60036V3.9C9.75728 3.80813 9.73049 3.71694 9.67512 3.64332C9.61976 3.56971 9.53958 3.51866 9.44946 3.49964C9.37908 3.49229 9.30837 3.51007 9.24982 3.54982C7.42954 4.12838 5.84059 5.27118 4.71297 6.81281C3.58534 8.35443 2.97754 10.2149 2.97754 12.1249C2.97754 14.0349 3.58534 15.8954 4.71297 17.437C5.84059 18.9786 7.42954 20.1214 9.24982 20.7C9.29139 20.7241 9.3381 20.7381 9.3861 20.7407C9.43411 20.7434 9.48205 20.7346 9.52601 20.7151C9.56997 20.6956 9.60868 20.666 9.63899 20.6287C9.6693 20.5914 9.69033 20.5474 9.70037 20.5004C9.75055 20.4502 9.75055 20.4 9.75055 20.2996V19.6004C9.75055 19.4498 9.6 19.2502 9.44946 19.1498ZM14.7502 3.54982C14.7085 3.52567 14.6618 3.51174 14.6137 3.50918C14.5656 3.50662 14.5176 3.5155 14.4736 3.53509C14.4297 3.55469 14.391 3.58443 14.3607 3.62188C14.3305 3.65934 14.3095 3.70343 14.2996 3.75054C14.2505 3.79964 14.2505 3.84982 14.2505 3.95018V4.64945C14.259 4.75029 14.2904 4.84786 14.3424 4.93466C14.3944 5.02146 14.4656 5.09519 14.5505 5.15018C15.9892 5.67787 17.2312 6.63455 18.1086 7.8909C18.986 9.14725 19.4564 10.6427 19.4564 12.1751C19.4564 13.7075 18.986 15.2029 18.1086 16.4593C17.2312 17.7156 15.9892 18.6723 14.5505 19.2C14.4547 19.2416 14.3742 19.3121 14.3204 19.4017C14.2666 19.4913 14.2422 19.5955 14.2505 19.6996V20.4C14.2438 20.4917 14.2704 20.5828 14.3256 20.6564C14.3807 20.73 14.4606 20.7811 14.5505 20.8004C14.6209 20.8077 14.6916 20.7899 14.7502 20.7502C16.5698 20.1636 18.1564 19.015 19.2819 17.4697C20.4074 15.9243 21.0138 14.0618 21.0138 12.15C21.0138 10.2382 20.4074 8.37569 19.2819 6.83032C18.1564 5.28495 16.5698 4.13638 14.7502 3.54982Z" fill="white"/>
</svg>
